<?xml version="1.0" standalone="no"?>
<!DOCTYPE svg PUBLIC "-//W3C//DTD SVG 20010904//EN"
 "http://www.w3.org/TR/2001/REC-SVG-20010904/DTD/svg10.dtd">
<svg version="1.0" xmlns="http://www.w3.org/2000/svg"
 width="1200.000000pt" height="1200.000000pt" viewBox="0 0 1200.000000 1200.000000"
 preserveAspectRatio="xMidYMid meet">
<metadata>
Created by potrace 1.14, written by Peter Selinger 2001-2017
</metadata>
<g transform="translate(0.000000,1200.000000) scale(0.100000,-0.100000)"
fill="#000000" stroke="none">
<path d="M5768 10245 c-2 -2 -41 -6 -86 -10 -46 -4 -93 -8 -104 -10 -11 -2
-46 -7 -79 -10 -33 -4 -68 -8 -77 -10 -9 -1 -55 -10 -102 -19 -81 -15 -107
-21 -147 -30 -10 -2 -38 -9 -63 -15 -120 -27 -397 -119 -510 -168 -25 -11 -65
-28 -90 -38 -53 -22 -281 -139 -360 -184 -241 -138 -564 -390 -767 -600 -225
-232 -356 -398 -512 -650 -72 -115 -202 -363 -254 -481 -114 -261 -234 -699
-262 -955 -3 -27 -8 -59 -10 -70 -19 -93 -26 -556 -11 -730 8 -97 32 -284 41
-325 3 -14 8 -43 11 -65 11 -69 92 -376 124 -470 59 -167 122 -319 195 -465
72 -147 173 -322 187 -328 4 -2 8 -8 8 -13 0 -8 41 -76 63 -104 4 -5 35 -48
69 -95 33 -47 64 -87 67 -90 3 -3 35 -41 71 -85 360 -446 886 -833 1442 -1061
134 -55 412 -146 514 -169 196 -43 177 -39 372 -70 13 -2 53 -7 90 -10 37 -4
78 -9 92 -12 58 -12 530 -10 645 3 66 7 149 16 185 19 36 4 67 8 70 10 3 2 26
6 50 10 25 4 50 8 55 9 6 1 37 8 70 15 33 8 65 14 70 16 102 22 426 120 480
145 11 5 61 25 110 45 191 78 388 182 590 313 90 58 282 196 295 211 3 3 32
28 65 56 163 135 357 333 494 505 42 52 79 97 82 100 15 12 162 237 230 350
70 116 113 199 194 375 65 139 174 454 200 575 2 8 9 38 15 65 37 159 52 239
69 380 20 157 25 253 26 460 0 186 -9 382 -20 425 -2 8 -7 42 -10 75 -15 135
-61 348 -129 595 -15 55 -111 311 -143 380 -84 186 -260 508 -300 548 -7 7
-13 18 -13 23 0 5 -7 17 -15 26 -8 10 -53 70 -100 133 -93 125 -154 197 -255
304 -81 87 -234 235 -280 272 -19 16 -44 38 -56 49 -11 11 -35 31 -53 45 -18
14 -54 41 -79 61 -65 50 -289 202 -337 229 -334 188 -544 280 -825 364 -179
53 -414 104 -552 120 -27 3 -69 9 -94 12 -26 3 -68 8 -93 10 -56 5 -549 13
-553 9z m527 -88 c22 -3 65 -8 95 -11 96 -9 185 -22 220 -31 3 0 27 -4 53 -9
59 -9 60 -9 172 -36 384 -91 824 -281 1140 -494 71 -48 238 -168 245 -176 3
-3 14 -13 26 -21 39 -26 157 -133 277 -249 170 -165 324 -351 468 -566 100
-150 98 -146 111 -174 7 -14 20 -36 29 -50 15 -23 132 -249 134 -260 1 -3 15
-35 32 -72 17 -37 35 -78 38 -90 4 -13 18 -47 31 -76 13 -29 24 -61 24 -70 0
-10 4 -22 8 -28 9 -9 36 -94 71 -219 55 -192 101 -459 118 -675 13 -166 6
-574 -12 -681 -2 -13 -7 -51 -10 -84 -17 -171 -97 -500 -169 -700 -71 -196
-81 -220 -88 -223 -5 -2 -8 -10 -8 -17 0 -31 -167 -348 -263 -500 -50 -80
-174 -255 -187 -265 -3 -3 -23 -27 -43 -53 -112 -149 -359 -401 -523 -534
-151 -122 -240 -186 -398 -285 -109 -68 -446 -243 -446 -232 0 4 -7 1 -16 -7
-46 -38 -533 -194 -699 -223 -16 -3 -39 -8 -50 -10 -113 -22 -258 -41 -400
-53 -169 -13 -595 -5 -686 12 -12 2 -47 7 -78 10 -31 4 -90 13 -131 21 -41 9
-86 17 -100 19 -24 3 -128 28 -240 58 -251 67 -597 211 -808 336 -29 17 -55
31 -58 31 -6 0 -207 133 -292 194 -54 37 -182 141 -257 206 -107 93 -380 379
-425 445 -8 12 -31 41 -51 66 -62 76 -209 293 -252 370 -141 257 -203 388
-270 569 -30 82 -49 140 -97 295 -12 42 -50 203 -56 245 -3 19 -7 37 -9 40 -2
3 -6 24 -9 46 -4 22 -9 51 -11 64 -3 14 -8 54 -11 90 -4 36 -8 68 -10 71 -23
40 -23 680 0 807 2 9 7 42 11 72 12 96 16 124 25 165 5 22 12 56 15 75 31 185
140 528 232 730 93 206 237 461 337 597 17 23 49 67 71 99 22 31 47 64 55 74
8 10 22 27 30 37 144 179 398 434 542 543 11 8 38 30 61 48 23 17 47 36 52 40
41 32 217 149 295 197 291 179 772 372 1050 421 14 3 33 7 42 10 42 12 200 40
278 49 30 3 62 8 70 10 8 2 58 7 110 10 52 4 97 9 99 10 5 6 449 -2 496 -8z"/>
<path d="M5769 10086 c-2 -2 -38 -7 -79 -10 -124 -11 -160 -15 -285 -36 -758
-129 -1472 -516 -1985 -1076 -70 -77 -151 -171 -169 -198 -8 -12 -18 -23 -21
-26 -4 -3 -42 -54 -86 -115 -101 -138 -195 -291 -259 -420 -28 -55 -53 -101
-57 -103 -5 -2 -8 -8 -8 -12 0 -5 -18 -48 -40 -95 -22 -47 -40 -92 -40 -99 0
-6 -4 -16 -9 -21 -28 -28 -168 -501 -186 -628 -4 -23 -10 -60 -15 -82 -5 -22
-12 -69 -16 -105 -3 -36 -8 -67 -9 -70 -2 -3 -6 -44 -10 -90 -4 -47 -8 -103
-11 -125 -5 -55 -5 -374 0 -405 3 -14 7 -65 11 -115 3 -49 8 -99 10 -110 2
-11 7 -40 10 -65 31 -261 128 -613 240 -874 55 -128 151 -325 170 -346 8 -8
15 -19 16 -25 1 -5 7 -19 14 -30 114 -190 191 -300 320 -460 86 -107 349 -377
429 -441 27 -21 58 -47 70 -57 11 -10 30 -26 41 -35 121 -103 539 -370 605
-387 3 -1 48 -22 100 -47 84 -40 135 -62 135 -58 0 0 29 -12 65 -28 55 -25
261 -96 310 -108 8 -1 67 -16 130 -33 64 -16 136 -32 160 -36 25 -3 52 -8 60
-10 18 -5 56 -11 130 -20 30 -4 62 -9 70 -10 102 -19 552 -27 720 -13 90 8
363 45 392 54 10 3 30 8 45 11 41 7 46 9 68 16 11 3 32 8 48 11 61 10 307 90
424 136 227 91 428 194 618 315 64 41 227 155 235 164 3 4 39 33 80 66 117 92
126 100 285 260 147 147 288 315 393 465 77 110 122 179 122 185 0 3 15 29 33
58 18 29 40 67 48 85 7 17 17 32 21 32 5 0 8 4 8 9 0 5 29 69 64 143 78 161
167 390 191 494 3 10 16 62 30 114 31 115 71 313 80 395 4 33 8 67 10 75 2 8
7 51 10 95 4 44 9 96 11 115 6 57 5 350 -1 420 -22 255 -54 469 -96 633 -193
759 -618 1421 -1224 1909 -100 80 -123 98 -129 98 -6 0 -17 8 -49 36 -15 13
-237 154 -243 154 -2 0 -23 11 -45 25 -37 24 -258 139 -269 140 -3 1 -27 11
-55 24 -102 47 -400 151 -475 166 -8 2 -16 4 -17 5 -2 2 -6 3 -10 4 -5 1 -49
12 -99 24 -126 30 -279 57 -395 67 -35 4 -75 9 -89 12 -30 6 -545 15 -551 9z
m551 -89 c111 -14 156 -20 255 -37 411 -70 781 -203 1141 -411 110 -63 323
-203 359 -236 11 -10 38 -31 60 -47 22 -17 42 -32 45 -35 3 -4 37 -33 75 -66
147 -125 337 -326 454 -480 33 -44 64 -85 68 -90 49 -65 93 -125 93 -128 0 -3
18 -31 39 -63 113 -170 256 -465 337 -697 79 -228 123 -413 168 -717 26 -176
28 -679 2 -820 -3 -14 -7 -47 -11 -75 -40 -330 -164 -732 -327 -1060 -51 -103
-141 -259 -150 -263 -5 -2 -8 -8 -8 -14 0 -10 -112 -177 -154 -229 -12 -15
-30 -39 -41 -55 -89 -125 -341 -392 -478 -506 -34 -28 -64 -54 -67 -57 -3 -4
-21 -18 -40 -31 -19 -13 -41 -30 -48 -37 -31 -30 -216 -156 -334 -227 -433
-261 -974 -436 -1468 -473 -183 -15 -682 -5 -711 13 -4 2 -26 6 -51 8 -245 25
-639 136 -903 254 -265 118 -534 279 -735 439 -30 24 -73 59 -95 76 -144 115
-381 360 -501 517 -27 36 -51 67 -54 70 -4 3 -31 41 -62 85 -346 498 -560
1093 -605 1685 -14 181 -8 563 12 695 17 118 25 173 30 195 3 14 8 39 11 55
52 290 173 633 328 930 58 112 202 349 229 378 7 6 30 36 51 66 47 66 38 55
133 171 89 107 262 285 373 381 390 339 825 573 1355 730 17 4 73 18 125 29
120 27 126 29 170 35 20 3 46 7 59 10 52 10 181 26 251 31 41 3 77 7 79 9 5 5
496 -3 541 -8z"/>
<path d="M5025 8728 c-113 -19 -221 -105 -273 -215 l-27 -58 -2 -1870 c-3
-1989 -5 -1905 42 -1996 48 -91 152 -170 248 -188 83 -15 2148 -12 2205 4 178
47 288 195 276 373 -5 77 -26 134 -71 194 -47 61 -98 96 -179 124 -62 21 -72
21 -899 21 -460 0 -838 3 -842 6 -3 4 -6 732 -5 1619 0 887 -4 1641 -8 1676
-11 81 -42 144 -99 202 -78 79 -147 110 -254 114 -34 2 -84 -1 -112 -6z"/>
<path d="M3694 2370 c-12 -5 -23 -14 -26 -22 -3 -7 -6 -134 -6 -283 0 -217 3
-274 14 -292 18 -28 55 -30 77 -5 15 16 17 52 17 293 0 282 -2 298 -40 311 -8
3 -24 2 -36 -2z"/>
<path d="M4815 2372 c-43 -8 -45 -22 -45 -312 0 -256 1 -278 18 -293 10 -10
28 -17 40 -17 36 0 50 36 50 130 0 173 0 175 28 204 19 18 37 26 63 26 71 0
81 -24 81 -187 0 -100 3 -133 16 -151 19 -27 55 -28 79 -2 15 17 17 36 13 177
-5 181 -17 221 -73 247 -62 30 -132 19 -182 -27 -26 -23 -25 -25 -24 63 1 120
-13 153 -64 142z"/>
<path d="M5799 2359 c-18 -18 -19 -36 -19 -292 0 -295 4 -317 54 -317 43 0 54
27 54 130 1 52 1 114 1 136 1 55 38 94 90 94 72 -1 82 -24 83 -193 0 -134 11
-167 52 -167 12 0 31 9 41 19 15 18 17 38 13 178 -3 114 -8 168 -20 194 -34
79 -164 93 -235 27 l-23 -21 -1 29 c-1 16 -1 58 0 94 0 37 -5 72 -12 81 -20
26 -56 30 -78 8z"/>
<path d="M4433 2191 c-66 -31 -95 -95 -71 -163 14 -40 48 -63 139 -93 70 -24
89 -37 103 -72 1 -1 -8 -9 -19 -17 -34 -26 -86 -19 -145 18 -57 36 -79 36 -99
-3 -14 -26 23 -74 73 -95 119 -52 254 -10 275 86 18 79 -27 134 -136 168 -78
24 -93 35 -93 65 0 43 75 48 132 8 32 -22 42 -24 62 -15 35 16 39 48 9 79 -55
55 -152 69 -230 34z"/>
<path d="M5440 2203 c-8 -3 -27 -14 -41 -24 -25 -17 -26 -17 -42 2 -22 26 -73
25 -87 -1 -7 -12 -10 -119 -10 -294 1 -235 3 -276 17 -287 21 -18 47 -21 67
-6 21 15 24 32 25 124 l1 72 35 -20 c94 -56 218 -16 270 87 64 126 14 291
-104 340 -33 14 -102 18 -131 7z m107 -110 c33 -22 53 -70 53 -127 0 -39 -6
-51 -39 -87 -36 -37 -44 -41 -78 -37 -71 9 -105 42 -116 116 -17 109 93 192
180 135z"/>
<path d="M6400 2203 c-99 -32 -153 -116 -152 -234 1 -84 49 -172 113 -204 51
-27 122 -27 175 0 47 24 48 24 61 5 18 -25 55 -26 76 -2 15 16 17 46 17 211 0
113 -4 200 -10 212 -14 25 -62 25 -85 -1 -17 -19 -18 -19 -56 0 -36 19 -104
25 -139 13z m147 -125 c66 -62 45 -194 -37 -228 -104 -43 -198 83 -144 195 35
75 120 90 181 33z"/>
<path d="M6960 2199 c-14 -5 -31 -17 -38 -27 -13 -16 -15 -15 -29 6 -11 15
-25 22 -48 22 -47 0 -52 -23 -51 -236 1 -194 6 -214 52 -214 47 0 54 21 54
157 0 177 24 219 119 206 47 -6 71 8 71 43 0 48 -63 69 -130 43z"/>
<path d="M7325 2194 c-16 -8 -36 -21 -44 -29 -13 -12 -16 -11 -25 8 -14 28
-67 35 -86 12 -10 -13 -14 -63 -14 -212 0 -180 2 -197 19 -209 24 -18 46 -18
69 -1 16 12 18 29 18 128 -1 176 18 219 99 219 64 0 73 -21 76 -173 1 -73 2
-137 2 -144 1 -18 30 -43 50 -43 9 0 26 6 36 14 16 12 19 29 21 142 2 163 0
151 29 179 32 33 93 34 121 4 19 -21 23 -65 24 -256 0 -74 37 -104 85 -69 18
13 20 28 20 158 1 221 -24 277 -128 286 -59 5 -103 -12 -146 -55 l-25 -24 -13
25 c-28 53 -124 73 -188 40z"/>
<path d="M8023 2192 c-40 -21 -80 -65 -98 -109 -22 -51 -22 -157 -1 -208 47
-113 168 -162 270 -111 44 22 46 23 62 5 23 -26 60 -24 78 4 11 17 14 61 12
212 -1 105 -6 198 -10 208 -11 23 -62 22 -82 -2 -16 -18 -17 -18 -60 1 -51 22
-127 22 -171 0z m165 -98 c76 -53 71 -198 -9 -240 -29 -14 -74 -15 -109 0 -31
13 -63 74 -62 121 2 84 46 135 117 135 22 0 51 -7 63 -16z"/>
<path d="M3889 2184 c-17 -20 -17 -275 0 -326 26 -78 108 -123 207 -113 71 7
115 34 143 89 22 44 25 61 26 183 1 152 -6 177 -51 181 -49 5 -56 -13 -56
-150 0 -152 -8 -183 -52 -198 -57 -19 -101 -1 -114 45 -5 17 -9 86 -10 153 -1
78 -5 129 -13 138 -15 19 -63 18 -80 -2z"/>
</g>
</svg>
